<svg xmlns="http://www.w3.org/2000/svg" width="24" height="24" viewBox="0 0 24 24">
    <g fill-rule="evenodd"><path d="M11.5 9C10.121 9 9 10.121 9 11.5 9 12.879 10.121 14 11.5 14 12.879 14 14 12.879 14 11.5 14 10.121 12.879 9 11.5 9M11.5 10C12.328 10 13 10.672 13 11.5 13 12.328 12.328 13 11.5 13 10.672 13 10 12.328 10 11.5 10 10.672 10.672 10 11.5 10M3.5 9C2.121 9 1 10.121 1 11.5 1 12.879 2.121 14 3.5 14 4.879 14 6 12.879 6 11.5 6 10.121 4.879 9 3.5 9M3.5 10C4.328 10 5 10.672 5 11.5 5 12.328 4.328 13 3.5 13 2.672 13 2 12.328 2 11.5 2 10.672 2.672 10 3.5 10M19.5 9C18.121 9 17 10.121 17 11.5 17 12.879 18.121 14 19.5 14 20.879 14 22 12.879 22 11.5 22 10.121 20.879 9 19.5 9M19.5 10C20.328 10 21 10.672 21 11.5 21 12.328 20.328 13 19.5 13 18.672 13 18 12.328 18 11.5 18 10.672 18.672 10 19.5 10"/></g>
</svg>