<?xml version="1.0" encoding="utf-8"?>
<svg version="1.1" id="Layer_1" xmlns="http://www.w3.org/2000/svg" xmlns:xlink="http://www.w3.org/1999/xlink" x="0px" y="0px" width="24" height="24" viewBox="0 0 24 24" style="enable-background:new 0 0 24 96" xml:space="preserve">
	<style type="text/css">.st0{fill:#606065;} .st1{fill:#2D2D32;} .st2{fill:#FFFFFF;} .st3{fill:#FC4C01;}</style>
	<g id="Icons"><path class="st0" d="M12,19c-0.1,0-0.3-0.1-0.4-0.1l-10-10c-0.2-0.2-0.2-0.5,0-0.7s0.5-0.2,0.7,0l9.6,9.7l9.6-9.6c0.2-0.2,0.5-0.2,0.7,0c0.2,0.2,0.2,0.5,0,0.7l0,0l-10,10C12.3,18.9,12.1,19,12,19z"/></g>
	<!-- <g id="Icons_1_"><path class="st1" d="M12,43c-0.1,0-0.3-0.1-0.4-0.2l-10-10c-0.2-0.2-0.2-0.5,0-0.7s0.5-0.2,0.7,0l9.6,9.7l9.6-9.7c0.2-0.2,0.5-0.2,0.7,0c0.2,0.2,0.2,0.5,0,0.7l0,0l-10,10C12.3,42.9,12.1,43,12,43z"/></g> -->
	<!-- <g id="Icons_2_"><path class="st2" d="M12,67c-0.1,0-0.3-0.1-0.4-0.2l-10-10c-0.2-0.2-0.2-0.5,0-0.7s0.5-0.2,0.7,0l9.6,9.7l9.6-9.7c0.2-0.2,0.5-0.2,0.7,0c0.2,0.2,0.2,0.5,0,0.7l0,0l-10,10C12.3,66.9,12.1,67,12,67z"/></g> -->
	<!-- <g id="Icons_3_"><path class="st3" d="M12,91c-0.1,0-0.3-0.1-0.4-0.2l-10-10c-0.2-0.2-0.2-0.5,0-0.7s0.5-0.2,0.7,0l9.6,9.7l9.6-9.7c0.2-0.2,0.5-0.2,0.7,0c0.2,0.2,0.2,0.5,0,0.7l0,0l-10,10C12.3,90.9,12.1,91,12,91z"/></g> -->
		
</svg>